<?xml version="1.0" standalone="no"?><!DOCTYPE svg PUBLIC "-//W3C//DTD SVG 1.1//EN" "http://www.w3.org/Graphics/SVG/1.1/DTD/svg11.dtd"><svg class="icon" width="128px" height="128.00px" viewBox="0 0 1024 1024" version="1.1" xmlns="http://www.w3.org/2000/svg"><path d="M1024 512a512 512 0 1 0-1024.056889 0.056889A512 512 0 0 0 1024 512z m-227.555556 178.062222c0 58.595556-47.786667 106.382222-106.382222 106.382222a106.837333 106.837333 0 0 1-42.666666-204.8V458.524444c0-25.6-20.48-46.08-46.08-46.08-25.6 0-46.08 20.48-46.08 46.08v106.951112c0 72.817778-59.164444 131.413333-131.413334 131.413333s-131.413333-59.164444-131.413333-131.413333V431.786667C253.724444 415.288889 227.555556 377.742222 227.555556 334.506667 227.555556 275.342222 275.342222 227.555556 334.506667 227.555556a106.837333 106.837333 0 0 1 42.666666 204.8v133.688888c0 25.6 20.48 46.08 46.08 46.08 25.6 0 46.08-20.48 46.08-46.08V458.524444c0-72.248889 59.164444-131.413333 131.413334-131.413333 72.817778 0 131.413333 59.164444 131.413333 131.413333v133.688889c38.115556 16.497778 64.284444 54.044444 64.284444 97.848889zM334.506667 355.555556c-11.377778 0-21.617778-9.671111-21.617778-21.048889a21.617778 21.617778 0 1 1 43.235555 0c0 11.946667-10.24 21.048889-21.617777 21.048889z m354.986666 312.888888a21.617778 21.617778 0 1 1 0 43.235556 21.617778 21.617778 0 0 1 0-43.235556zM312.888889 334.506667c0-11.377778 9.671111-21.617778 21.617778-21.617778s21.617778 9.671111 21.617777 21.617778-10.24 21.048889-21.617777 21.048889-21.617778-9.671111-21.617778-21.048889z m398.791111 354.986666c0 11.946667-10.24 21.617778-21.617778 21.617778a21.617778 21.617778 0 1 1 21.617778-21.617778z" fill="#48C9B0" /></svg>