<?xml version="1.0" standalone="no"?><!DOCTYPE svg PUBLIC "-//W3C//DTD SVG 1.1//EN" "http://www.w3.org/Graphics/SVG/1.1/DTD/svg11.dtd"><svg class="icon" width="128px" height="128.00px" viewBox="0 0 1024 1024" version="1.1" xmlns="http://www.w3.org/2000/svg"><path d="M528.680696 0.273638a511.817605 511.817605 0 1 0 494.863362 494.77221A511.817605 511.817605 0 0 0 528.680696 0.273638z m106.191899 748.721248a14.31084 14.31084 0 0 1-16.680788 14.128536 14.857751 14.857751 0 0 1-11.940891-14.948903v-44.573251h28.621679z m113.848653-251.214483a14.31084 14.31084 0 0 1 14.31084 14.31084 14.31084 14.31084 0 0 1-14.31084 14.31084h-45.575922v80.122471h44.573252a14.857751 14.857751 0 0 1 14.948902 11.940891 14.31084 14.31084 0 0 1-14.128535 16.680788h-45.575923v47.672414a20.78262 20.78262 0 0 1-20.78262 20.782621H526.128445v44.573251a14.857751 14.857751 0 0 1-11.84974 14.948903 14.401991 14.401991 0 0 1-16.771939-14.128536v-45.575922H417.475446v44.573252a14.948902 14.948902 0 0 1-11.940891 14.948902 14.31084 14.31084 0 0 1-16.680788-14.128536v-45.575922h-47.672414a20.78262 20.78262 0 0 1-20.782621-20.78262v-47.307807h-44.664403a14.948902 14.948902 0 0 1-14.857751-11.940892 14.31084 14.31084 0 0 1 14.128536-16.680787h45.575922v-80.122471h-45.575922a14.31084 14.31084 0 0 1-14.31084-14.31084 14.31084 14.31084 0 0 1 14.31084-14.31084h45.575922V417.749084h-44.664404a14.948902 14.948902 0 0 1-14.85775-11.940891 14.31084 14.31084 0 0 1 14.128536-16.680788h45.575922v-47.672414a20.78262 20.78262 0 0 1 20.78262-20.782621h47.672415v-44.664403a14.857751 14.857751 0 0 1 11.849739-14.857751 14.401991 14.401991 0 0 1 16.77194 14.128536v45.575922h80.031319v-44.664404a14.948902 14.948902 0 0 1 11.940892-14.85775 14.31084 14.31084 0 0 1 16.680787 14.128535v45.575923h80.122471v-44.664404a14.857751 14.857751 0 0 1 11.940892-14.857751 14.31084 14.31084 0 0 1 16.680787 14.128536v45.575922h47.672415a20.78262 20.78262 0 0 1 20.78262 20.782621v47.672414h44.573252a14.857751 14.857751 0 0 1 14.584295 11.667436 14.401991 14.401991 0 0 1-14.128536 16.77194h-45.575922v80.031319z" fill="#F1C40F" /></svg>