<?xml version="1.0" standalone="no"?><!DOCTYPE svg PUBLIC "-//W3C//DTD SVG 1.1//EN" "http://www.w3.org/Graphics/SVG/1.1/DTD/svg11.dtd"><svg class="icon" width="128px" height="128.00px" viewBox="0 0 1024 1024" version="1.1" xmlns="http://www.w3.org/2000/svg"><path d="M512 0c282.7776 0 512 229.2224 512 512s-229.2224 512-512 512S0 794.7776 0 512 229.2224 0 512 0z m25.6 204.8H512v51.2l-11.1104 0.256A256 256 0 1 0 768 512h51.2v-25.6l-0.2048-11.3152A281.6 281.6 0 0 0 537.6 204.8zM512 307.2v204.8h204.8l-0.256 10.24A204.8 204.8 0 1 1 512 307.2z m51.2-49.8176a230.5536 230.5536 0 0 1 201.9328 192.4608l1.4848 10.9568H563.2z" fill="#E74C3C" /></svg>