<?xml version="1.0" standalone="no"?><!DOCTYPE svg PUBLIC "-//W3C//DTD SVG 1.1//EN" "http://www.w3.org/Graphics/SVG/1.1/DTD/svg11.dtd"><svg class="icon" width="128px" height="128.00px" viewBox="0 0 1024 1024" version="1.1" xmlns="http://www.w3.org/2000/svg"><path d="M512 512m-512 0a512 512 0 1 0 1024 0 512 512 0 1 0-1024 0Z" fill="#7B9DFF" /><path d="M484.842667 234.666667c156.565333 0 271.509333 126.272 271.509333 269.525333 0 49.642667-13.44 96.298667-37.056 136.362667l79.424 85.034666c19.370667 19.84 14.506667 47.146667-9.664 59.562667-12.096 7.445333-29.034667 4.949333-41.130667-7.445333-14.890667-15.274667-53.888-56.085333-74.602666-79.232-48.533333 46.549333-114.752 75.264-188.48 75.264C338.069333 773.738667 213.333333 654.72 213.333333 501.76 213.333333 356.053333 330.730667 234.666667 484.842667 234.666667z m0 60.693333c-113.002667 0-207.125333 89.173333-207.936 200.618667l0.042666 5.802666c-0.085333 113.877333 92.864 206.293333 207.573334 206.357334h0.32c114.965333 0 210.368-92.266667 210.368-208.810667-2.453333-111.68-95.381333-203.946667-210.346667-203.946667z" fill="#FFFFFF" /></svg>