<svg width="1024" height="1024" xmlns="http://www.w3.org/2000/svg" class="icon">

 <g>
  <title>background</title>
  <rect fill="none" id="canvas_background" height="402" width="582" y="-1" x="-1"/>
 </g>
 <g>
  <title>Layer 1</title>
  <path id="svg_1" fill="#CDCDCD" d="m511.89102,859.72456c-201.54323,0 -365.49018,-163.94593 -365.49018,-365.48915c0,-201.54221 163.94695,-365.48916 365.49018,-365.48916c201.5422,0 365.48916,163.94695 365.48916,365.48916c0,201.54322 -163.94594,365.48915 -365.48916,365.48915zm0,-696.17055c-182.33782,0 -330.68038,148.34358 -330.68038,330.68037c0,182.33782 148.34359,330.68038 330.68038,330.68038c182.33679,0 330.68037,-148.34359 330.68037,-330.68038c0.00103,-182.33577 -148.34358,-330.68037 -330.68037,-330.68037z"/>
  <ellipse stroke="#000" ry="330.696479" rx="330.980539" id="svg_2" cy="494.28038" cx="512.128568" stroke-opacity="null" stroke-width="0" fill="#ffffff"/>
 </g>
</svg>