<?xml version="1.0" standalone="no"?><!DOCTYPE svg PUBLIC "-//W3C//DTD SVG 1.1//EN" "http://www.w3.org/Graphics/SVG/1.1/DTD/svg11.dtd"><svg class="icon" width="128px" height="128.00px" viewBox="0 0 1024 1024" version="1.1" xmlns="http://www.w3.org/2000/svg"><path d="M753.536 659.2c51.52-70.4 83.712-153.6 83.712-243.2 0-230.4-186.752-416-418.624-416S0 185.6 0 416s186.752 416 418.56 416c90.24 0 173.952-32 244.8-76.8l251.136 249.6c25.792 25.6 64.448 25.6 90.24 0 25.728-25.6 25.728-64 0-89.6l-251.2-256zM418.56 768C225.344 768 64.32 608 64.32 416S225.408 64 418.624 64 772.8 224 772.8 416 611.84 768 418.624 768" fill="#545354" /></svg>