<?xml version="1.0" standalone="no"?><!DOCTYPE svg PUBLIC "-//W3C//DTD SVG 1.1//EN" "http://www.w3.org/Graphics/SVG/1.1/DTD/svg11.dtd"><svg class="icon" width="128px" height="128.00px" viewBox="0 0 1024 1024" version="1.1" xmlns="http://www.w3.org/2000/svg"><path d="M500.8 724.8c-20.8 0-38.4 6.4-52.8 20.8-14.4 14.4-20.8 30.4-20.8 52.8s6.4 38.4 20.8 52.8c14.4 14.4 32 20.8 52.8 20.8 20.8 0 38.4-6.4 52.8-20.8 14.4-14.4 22.4-32 22.4-52.8s-8-38.4-20.8-52.8c-14.4-14.4-33.6-20.8-54.4-20.8zM672 212.8c-38.4-35.2-91.2-51.2-153.6-51.2-72 0-128 20.8-171.2 60.8-28.8 27.2-48 62.4-56 102.4-8 33.6 19.2 67.2 54.4 67.2 25.6 0 49.6-19.2 54.4-44.8 3.2-20.8 11.2-36.8 20.8-51.2 19.2-27.2 48-40 91.2-40 33.6 0 59.2 8 78.4 27.2 17.6 19.2 27.2 43.2 27.2 76.8 0 24-8 48-25.6 68.8l-11.2 14.4c-64 56-100.8 97.6-113.6 123.2-4.8 9.6-9.6 25.6-11.2 43.2-6.4 33.6 20.8 65.6 56 65.6 27.2 0 49.6-19.2 54.4-46.4 1.6-12.8 4.8-24 8-30.4 8-17.6 20.8-33.6 38.4-48 46.4-41.6 75.2-67.2 83.2-76.8 24-30.4 36.8-70.4 36.8-120-3.2-59.2-22.4-105.6-60.8-140.8z" fill="#262626" /></svg>